<?xml version="1.0" encoding="utf-8"?>
<!-- Generator: Adobe Illustrator 27.9.0, SVG Export Plug-In . SVG Version: 6.00 Build 0)  -->
<svg version="1.1" id="Layer_1" xmlns="http://www.w3.org/2000/svg" xmlns:xlink="http://www.w3.org/1999/xlink" x="0px" y="0px"
	 viewBox="0 0 20 14" style="enable-background:new 0 0 20 14;" xml:space="preserve">
<style type="text/css">
	.st0{fill:#FFFFFF;}
</style>
<path class="st0" d="M1,0C0.5,0,0,0.4,0,1c0,0.6,0.4,1,1,1c0,0,0,0,0,0h18c0.6,0,1-0.4,1-1s-0.4-1-1-1c0,0,0,0,0,0H1z M1,6
	C0.5,6,0,6.4,0,7c0,0.6,0.4,1,1,1c0,0,0,0,0,0h18c0.6,0,1-0.4,1-1c0-0.6-0.4-1-1-1c0,0,0,0,0,0H1z M1,12c-0.6,0-1,0.4-1,1
	c0,0.6,0.4,1,1,1c0,0,0,0,0,0h18c0.6,0,1-0.4,1-1s-0.4-1-1-1c0,0,0,0,0,0H1z"/>
</svg>
